<?xml version="1.0" encoding="utf-8"?>
<!-- Generator: Adobe Illustrator 23.0.0, SVG Export Plug-In . SVG Version: 6.00 Build 0)  -->
<svg version="1.1" id="Layer_1" xmlns="http://www.w3.org/2000/svg" xmlns:xlink="http://www.w3.org/1999/xlink" x="0px" y="0px"
	 viewBox="0 0 632.1 252.9" style="enable-background:new 0 0 632.1 252.9;" xml:space="preserve">
<style type="text/css">
	.st0{fill:#004438;}
	.st1{fill:#8E1537;}
	.st2{fill:#92C0E9;}
	.st3{fill:#1A428A;}
	.st4{fill:#97BCE2;}
</style>
<g>
	<path class="st0" d="M424.7,211.6c0-0.5,0.5-1,1-1c0.6,0,1,0.5,1,1c0,0.6-0.5,1-1,1C425.1,212.7,424.7,212.2,424.7,211.6z
		 M431.1,218.6v2.9c0,1-0.9,2.8-2.9,2.8H421h-4.8h-24h-0.3h-0.6c-0.3,0-0.6,0-0.9-0.1c-0.5-0.1-1.2-0.4-1.7-1v3.2
		c0,2.1-1.7,3.7-3.9,3.7c-1.1,0-1.6-0.2-2.8-0.9l0-0.7c0.6,0.4,1.4,0.5,2,0.5c1.6,0,2.3-0.7,2.7-1.4c0.2-0.4,0.3-0.9,0.4-1.5v-7.5
		c0-0.8-0.2-2.2-0.3-2.3h2.3c-0.1,0.1-0.3,1.5-0.3,2.3v2.8c0.1,1.2,1.2,1.8,2,1.8h1.2h0.3h7.7v-9.4c0-1.1,0-1.2-0.3-1.5l2.2-1.1
		c0,0.2-0.3,0.6-0.3,1.8l-0.3,9.1c0.8-2,2.5-5.1,6.4-5.8c3.4-0.7,5.7,1.7,5.7,4.1c0,0.6,0.1,1.9-0.4,2.8h3.2h4.8h3
		c-0.7-0.7-1.2-1.8-1.2-3.1c0-2.4,2-4.2,4.7-4.2C430.4,216,431.1,217,431.1,218.6z M411.7,220.8c0-1.6-0.9-3.8-4.3-3.2
		c-3.3,0.6-5.3,4.1-6.1,5.8h9.3C411.9,223.2,411.7,221.6,411.7,220.8z M427.5,216.6c-1.5,0-2.9,1.4-2.9,3.2c0,2,1.5,3.5,3,3.5
		c1.3,0,1.9-0.7,1.9-2.5C429.5,218.3,429.6,216.6,427.5,216.6z M428.9,212.7c0.6,0,1-0.5,1-1c0-0.6-0.5-1-1-1c-0.5,0-1,0.5-1,1
		C427.9,212.2,428.3,212.7,428.9,212.7z M443.5,212.7c0.6,0,1-0.5,1-1c0-0.6-0.5-1-1-1c-0.5,0-1,0.5-1,1
		C442.4,212.2,442.9,212.7,443.5,212.7z M440.3,212.7c0.6,0,1-0.5,1-1c0-0.6-0.5-1-1-1c-0.5,0-1,0.5-1,1
		C439.2,212.2,439.7,212.7,440.3,212.7z M485.7,217.5l2.2-1.1v0.2c-0.1,0.2-0.3,0.7-0.3,1.7v4c0,1.6-0.8,2.4-2.3,2.4
		c-0.5,0-1.4-0.2-2.7-1.6c-0.2,1.1-1.1,1.6-2.3,1.6c-0.5,0-1.4-0.1-2.8-1.7c-0.2,0.8-0.8,1.5-2.2,1.5h-2.9h-0.3h-2.3
		c-0.4,0-0.7-0.1-1-0.1c-0.6-0.1-1.2-0.5-1.8-1.1c-0.3,1-1,1.5-2.2,1.5c-0.5,0-1.4-0.2-2.7-1.6c-0.2,1.1-1.1,1.6-2.3,1.6
		c-0.5,0-1.4-0.1-2.8-1.7c-0.2,0.8-0.8,1.5-2.2,1.5H452h-4.3h-1.8c-2.4,0-2.7-1.7-2.7-2.6c-0.9,0.8-2.1,1.1-3.1,1
		c-1.9-0.1-2.3-1.3-2.3-2.3c0-1.6,1.8-3.2,5.5-3.9c0.4-0.1,0.8-0.1,1.1-0.1c0.2,0,0.3,0,0.5,0v4.8c0,1.3,0.2,2.1,1.5,2.1h1.3h4.3
		h2.2c1.4,0,1.5-1.3,1.5-2.9v-1.1c0-1,0-0.8-0.3-1.1l0-0.1l2.2-1.1v0.2c-0.1,0.2-0.3,0.7-0.3,1.7c0,3,0,3,0,3.2
		c0.4,0.9,1.6,1.6,2,1.6c1.3,0,1.3-1.3,1.3-2.7v-2c0-1,0-0.8-0.3-1.1l0-0.1l2.2-1.1v0.2c-0.1,0.2-0.3,0.7-0.3,1.7v3.6
		c0.4,0.9,1.6,1.6,2.1,1.6c1.3,0,1.3-1.3,1.3-2.7v-2.3c0-1,0-0.8-0.3-1.1l0-0.1l2.2-1.1v0.2c-0.1,0.2-0.3,0.7-0.3,1.7v3.3
		c0.1,1.2,1.2,1.8,2,1.8h3h0.3h2.2c1.5,0,1.5-1.3,1.5-2.9v-1.1c0-1,0-0.8-0.3-1.1l0-0.1l2.2-1.1v0.2c-0.1,0.2-0.3,0.7-0.3,1.7
		c0,3,0,3,0,3.2c0.4,0.9,1.6,1.6,2.1,1.6c1.3,0,1.3-1.3,1.3-2.7v-2c0-1,0-0.8-0.3-1.1l0-0.1l2.2-1.1v0.2c-0.1,0.2-0.3,0.7-0.3,1.7
		v3.6c0.4,0.9,1.6,1.6,2,1.6c1.3,0,1.3-1.3,1.3-2.7v-2.3C486,217.6,486,217.8,485.7,217.5L485.7,217.5z M443.3,217.2
		c-1.6,0.1-3.3,1.3-3.6,2.9c-0.1,0.7,0.2,1.8,1.6,1.8c0.6,0,1.5-0.2,2-1V217.2z M496,213.8l0-0.6c-0.6,0.3-0.8,0.4-1.2,0.4
		c-1,0-1.3-0.9-1.2-1.7c0.1-0.6,0.5-1,0.9-0.9c0.3,0,0.6,0.2,0.8,0.6l0.9-0.2c-0.2-0.4-0.8-0.8-1.5-0.8c-1.2-0.2-2.2,0.5-2.3,1.7
		c-0.1,0.6,0.2,1.2,0.5,1.4c-0.5,0-0.9,0-1-0.2l-0.1,0l-0.5,0.9h3.5C495.3,214.2,495.7,214,496,213.8z M515.8,220.8
		c0,1.2-0.4,2.2-1.2,2.9c-0.9,0.8-2.1,1.2-3.3,1.2c-1.3,0-2.3-0.5-3-1.2c-0.4,0.4-0.9,0.7-1.7,0.7h-2h-0.3h-6.7v2.1
		c0,2.1-1.7,3.7-3.9,3.7c-1.1,0-1.6-0.2-2.8-0.9l0-0.7c0.6,0.4,1.4,0.5,2,0.5c1.6,0,2.3-0.7,2.7-1.4c0.2-0.4,0.3-0.9,0.4-1.5v-1.8
		h-2.9c-2,0-3.6-1.8-3.6-4.1c0-2.3,2-4.1,4.6-4.1c1.3,0,3.6,0.7,3.6,2.8v4.3h6.7h0.3h1.2c1.2,0,1.5-1,1.5-2.3v-0.2
		c0-2.3,1.9-4.1,4.4-4.1C514.2,216.7,515.8,218.4,515.8,220.8z M493.9,216.7c-1.5,0-2.7,1.4-2.7,3.2c0,2,0.9,3.4,2.8,3.4h1.9v-2.5
		C495.9,218.4,495.9,216.7,493.9,216.7z M514,221c0-2.3-1-3.8-2.5-3.8c-1.5,0-2.3,1.2-2.3,3.2c0,2.3,1.1,4,2.6,4
		C513.1,224.4,514,223.1,514,221z M527.2,233.1c-0.5,0-1,0.5-1,1c0,0.6,0.4,1.1,1,1.1c0.5,0,1-0.5,1-1.1
		C528.3,233.6,527.8,233.1,527.2,233.1z M530.5,233.1c-0.5,0-1,0.5-1,1c0,0.6,0.4,1.1,1,1.1c0.5,0,1-0.5,1-1.1
		C531.4,233.6,531,233.1,530.5,233.1z M551.9,218.6v2.9c0,1-0.9,2.8-2.9,2.8h-7.2h-0.3h-5.7c0,1.1-0.9,2.3-1.9,3.4
		c-1,1-2.6,2.4-3.9,2.4c-4.4,0-7.8-4.4-7.5-6.1c0.2-0.8,1.1-1.6,2.4-2.2l0.2,0.4c-0.8,0.4-1,0.7-1.2,1.2c-0.4,1.3,2.4,5.2,6.2,5.2
		c1,0,2-0.2,3.1-1.4c2.1-2.2,1.4-4.6-1.1-6v-1c1.6,0.8,3.1,1.8,3.5,3h5.8h0.3h3c-0.7-0.7-1.2-1.8-1.2-3.1c0-2.4,2-4.2,4.7-4.2
		C551.2,216,551.9,217,551.9,218.6z M548.3,216.6c-1.5,0-2.9,1.4-2.9,3.2c0,2,1.5,3.5,3,3.5c1.3,0,1.9-0.7,1.9-2.5
		C550.3,218.3,550.4,216.6,548.3,216.6z M548,212.7c0.6,0,1-0.5,1-1c0-0.6-0.5-1-1-1c-0.5,0-1,0.5-1,1
		C547,212.2,547.5,212.7,548,212.7z M584.6,212.7c0.6,0,1-0.5,1-1c0-0.6-0.5-1-1-1c-0.5,0-1,0.5-1,1
		C583.5,212.2,584,212.7,584.6,212.7z M606.6,223l0.1,0.9c-0.9,0.4-1.7,0.5-2.5,0.5h-6.6h-0.3h-23.4h-0.3h-6.7v2.1
		c0,2.1-1.7,3.7-3.9,3.7c-1.1,0-1.6-0.2-2.8-0.9l0-0.7c0.6,0.4,1.4,0.5,2,0.5c1.6,0,2.3-0.7,2.7-1.4c0.2-0.4,0.4-0.9,0.4-1.5v-1.8
		h-2.9c-2.1,0-3.6-1.8-3.6-4.1c0-2.3,2-4.1,4.6-4.1c1.3,0,3.6,0.7,3.6,2.8v4.3h6.7h0.3h3.1v-2.5c0-1-0.1-1.2-0.4-1.4l0-0.1l2.2-1.1
		v0.2c-0.1,0.3-0.4,0.1-0.5,3.8c0.8-2,2.5-5.1,6.4-5.8c3.4-0.7,5.7,1.7,5.7,4.1c0,0.6,0.1,1.9-0.4,2.8h7.2h0.3h3.5
		c-0.9-0.6-1.6-1.9-1.5-3.4c0.1-2.3,2.5-3.9,4.9-3.6c1.3,0.2,2.3,0.7,2.7,1.4l-1.3,0.4c-0.3-0.8-0.9-1.1-1.7-1.2
		c-1.4-0.2-2.5,0.6-2.7,2.2c-0.2,2,0.5,3.7,2.7,4C604.9,223.4,605.6,223.3,606.6,223z M563.3,216.7c-1.5,0-2.7,1.4-2.7,3.2
		c0,2,0.9,3.4,2.8,3.4h1.9v-2.5C565.3,218.4,565.3,216.7,563.3,216.7z M588.8,220.8c0-1.6-1-3.8-4.3-3.2c-3.3,0.6-5.3,4.1-6.1,5.8
		h9.2C589,223.3,588.8,221.6,588.8,220.8z"/>
	<path class="st0" d="M64.3,211.8c0.4,0,1,0,1.9,0v0.6c-0.7,0-1.1,0-1.3,0.1c-0.1,0.1-0.3,0.1-0.3,0.2c-0.1,0.1-0.1,0.4-0.1,0.9
		c0,0.1,0,1,0,2.5v4.1c0,0.8,0,1.6,0,2.4c0,0.6,0.1,0.9,0.1,1c0.1,0.1,0.2,0.2,0.3,0.2c0.2,0.1,0.6,0.1,1.3,0.1v0.6
		c-1.2-0.1-2-0.1-2.5-0.1c-0.4,0-1.3,0-2.6,0.1v-0.6c0.7,0,1.1,0,1.3-0.1c0.2,0,0.3-0.1,0.3-0.2c0.1-0.1,0.1-0.4,0.1-0.9
		c0-0.1,0-1,0-2.5v-6.5l-3,6.4c-0.5,1-0.8,1.8-1.1,2.4c-0.2,0.4-0.5,1.2-0.9,2.1h-0.3c-0.1-0.2-0.1-0.4-0.2-0.5l-0.6-1.3l-4.2-8.8
		v6.2c0,0.8,0,1.6,0,2.4c0,0.6,0.1,0.9,0.1,1c0.1,0.1,0.2,0.2,0.3,0.2c0.2,0.1,0.6,0.1,1.3,0.1v0.6l-2.1-0.1l-2.2,0.1v-0.6
		c0.7,0,1.1,0,1.3-0.1c0.2,0,0.3-0.1,0.3-0.2c0.1-0.1,0.1-0.4,0.1-0.9c0-0.1,0-1,0-2.5V216c0-0.8,0-1.6,0-2.4c0-0.6-0.1-0.9-0.1-1
		c-0.1-0.1-0.2-0.2-0.3-0.2c-0.1,0-0.6-0.1-1.3-0.1v-0.6c0.6,0,1.2,0,1.8,0c0.6,0,1.1,0,1.6,0c0.5,1.2,1,2.2,1.4,3.1l3.3,7l3-6.4
		c0.8-1.7,1.4-3,1.7-3.7C63.3,211.8,63.9,211.8,64.3,211.8z M73.9,217.5c0.2,0.5,0.4,1.1,0.4,1.8c0,0.2,0,0.4,0,0.6
		c-0.4,0.1-0.8,0.1-1.1,0.2c-0.6,0-1.3,0.1-1.9,0.1h-2.8c0,0.9,0.2,1.5,0.4,2.1c0.3,0.5,0.7,0.9,1.2,1.2c0.5,0.2,1,0.4,1.5,0.4
		c0.4,0,0.7-0.1,1.1-0.2c0.4-0.1,0.8-0.3,1.3-0.6l0.1,0.2l-0.3,0.6c-0.4,0.3-0.7,0.4-0.9,0.5c-0.3,0.1-0.6,0.2-0.9,0.3
		c-0.4,0.1-0.7,0.1-1.1,0.1c-0.8,0-1.5-0.2-2.1-0.5c-0.6-0.3-1.1-0.8-1.5-1.5c-0.4-0.6-0.5-1.4-0.5-2.3c0-0.7,0.1-1.3,0.3-1.8
		c0.2-0.5,0.4-1,0.6-1.2c0.2-0.2,0.4-0.4,0.8-0.7c0.4-0.2,0.7-0.4,1.1-0.6c0.5-0.2,1-0.3,1.5-0.3c0.7,0,1.3,0.2,1.8,0.5
		C73.3,216.5,73.7,217,73.9,217.5z M72.7,219.1c0-0.9-0.2-1.6-0.6-2.1c-0.4-0.4-0.9-0.7-1.5-0.7c-0.7,0-1.2,0.2-1.6,0.7
		c-0.4,0.5-0.6,1.2-0.6,2.3c0.2,0,0.5,0,0.9,0.1c0.9,0,1.5,0,1.8,0c0.8,0,1.3,0,1.5,0C72.7,219.3,72.7,219.2,72.7,219.1z M89,223.8
		c0,0-0.1-0.1-0.1-0.1c-0.1-0.1-0.1-0.4-0.1-0.7c0-0.1,0-0.5,0-1.3l0-1.2v-0.9c0-1,0-1.7-0.1-2c-0.1-0.5-0.4-0.9-0.9-1.2
		c-0.5-0.4-1-0.5-1.7-0.5c-0.3,0-0.6,0-0.8,0.1c-0.3,0.1-0.5,0.2-0.7,0.2c-0.1,0-0.2,0.2-0.4,0.4l-1,0.9c-0.2-0.5-0.6-1-1-1.2
		c-0.4-0.3-0.9-0.4-1.5-0.4c-0.3,0-0.5,0-0.8,0.1c-0.3,0.1-0.4,0.1-0.6,0.2c0,0-0.1,0.1-0.3,0.2l-1.2,1.1c0-0.6,0-1,0.1-1.3
		c0-0.1,0-0.1,0-0.1c0-0.1,0-0.1,0-0.1c0,0-0.1,0-0.1,0c0,0-0.1,0-0.2,0.1c-0.5,0.3-1.4,0.5-2.6,0.7v0.5c0.7,0,1.1,0,1.1,0
		c0.1,0,0.2,0.1,0.2,0.1c0,0.1,0.1,0.3,0.1,0.6c0,0.5,0,1.1,0,1.5v1.1c0,1.6,0,2.5,0,2.6c0,0.3-0.1,0.5-0.1,0.6
		c0,0.1-0.1,0.1-0.2,0.1c-0.1,0-0.2,0.1-0.3,0.1l-0.8,0v0.5c1,0,1.8-0.1,2.3-0.1c0.6,0,1.3,0,2.1,0.1v-0.5c-0.6,0-0.9,0-1,0
		c-0.1,0-0.2-0.1-0.2-0.1c0,0-0.1-0.1-0.1-0.1c-0.1-0.1-0.1-0.4-0.1-0.7c0-0.1,0-1,0-2.5v-0.5c0-0.6,0-1.1,0.1-1.5
		c0-0.3,0.1-0.5,0.3-0.7c0.2-0.2,0.4-0.4,0.7-0.6c0.3-0.2,0.6-0.2,1-0.2c0.4,0,0.8,0.1,1.1,0.3c0.3,0.2,0.5,0.5,0.6,0.8
		c0.1,0.4,0.2,0.9,0.2,1.7v0.7c0,1.6,0,2.5,0,2.6c0,0.3-0.1,0.5-0.1,0.6c0,0.1-0.1,0.1-0.2,0.1c-0.1,0-0.2,0.1-0.3,0.1l-0.8,0v0.5
		c1.1,0,1.9-0.1,2.3-0.1c0.5,0,1.2,0,2.1,0.1v-0.5c-0.6,0-0.9,0-1,0c-0.1,0-0.2-0.1-0.2-0.1c0,0-0.1-0.1-0.1-0.1
		c-0.1-0.1-0.1-0.4-0.1-0.7c0-0.1,0-0.5,0-1.3l0-1.2v-0.6c0-0.9,0-1.4,0.1-1.7c0.1-0.3,0.3-0.6,0.6-0.8c0.4-0.3,0.8-0.4,1.3-0.4
		c0.4,0,0.8,0.1,1.1,0.3c0.3,0.2,0.5,0.5,0.6,0.9c0.1,0.4,0.2,1,0.2,2.1v0.8l0,1l-0.1,2.5c0.8,0,1.3-0.1,1.6-0.1
		c0.3,0,0.8,0,1.5,0.1v-0.5c-0.6,0-0.9,0-1,0C89.1,223.9,89,223.8,89,223.8z M98.9,217.6c0.3,0.6,0.4,1.2,0.4,1.9
		c0,0.5-0.1,1-0.2,1.5c-0.2,0.5-0.4,0.9-0.6,1.3c-0.2,0.3-0.3,0.5-0.5,0.6l-1.3,0.9c-0.5,0.4-0.9,0.6-1.2,0.8
		c-0.3,0.1-0.7,0.2-1.1,0.2c-0.4,0-0.8-0.1-1.1-0.2c-0.3-0.1-0.7-0.3-1.1-0.6l-0.7,0.7l-0.3-0.1c0.1-0.7,0.1-1.2,0.1-1.4
		c0-1.3,0.1-2.1,0.1-2.3v-4c0-1,0-2,0-3.1c0-0.7-0.1-1.1-0.1-1.2c0-0.1-0.1-0.1-0.1-0.1c-0.1,0-0.5-0.1-1.2-0.1v-0.5
		c1.3-0.2,2.2-0.4,2.8-0.6c0.1,0,0.1-0.1,0.2-0.1c0,0,0.1,0,0.1,0c0,0,0,0.1,0,0.1c0,0,0,0.1,0,0.2l0,0.3c0,1.1-0.1,2-0.1,2.7l0,1.4
		v1.8l1.2-1.2c0.2-0.1,0.4-0.3,0.8-0.4c0.4-0.1,0.8-0.2,1.2-0.2c0.6,0,1.2,0.2,1.7,0.5C98.3,216.6,98.7,217,98.9,217.6z M97.8,220.2
		c0-0.7-0.1-1.3-0.3-1.8c-0.2-0.5-0.5-0.8-0.9-1.1c-0.4-0.2-0.8-0.4-1.3-0.4c-0.6,0-1.1,0.2-1.5,0.5c-0.4,0.3-0.7,0.7-0.9,1.2v3.3
		c0,0.3,0,0.5,0,0.6c0,0.1,0.1,0.2,0.3,0.3c0.2,0.2,0.5,0.4,0.9,0.5c0.3,0.1,0.7,0.2,1,0.2c0.9,0,1.5-0.3,2-1
		C97.6,222,97.8,221.1,97.8,220.2z M107.4,217.5c0.2,0.5,0.4,1.1,0.4,1.8c0,0.2,0,0.4,0,0.6c-0.4,0.1-0.8,0.1-1.1,0.2
		c-0.6,0-1.3,0.1-1.9,0.1h-2.8c0,0.9,0.2,1.5,0.4,2.1c0.3,0.5,0.7,0.9,1.2,1.2c0.5,0.2,1,0.4,1.5,0.4c0.4,0,0.7-0.1,1.1-0.2
		c0.4-0.1,0.8-0.3,1.3-0.6l0.1,0.2l-0.3,0.6c-0.4,0.3-0.7,0.4-0.9,0.5c-0.3,0.1-0.6,0.2-0.9,0.3c-0.4,0.1-0.7,0.1-1.1,0.1
		c-0.8,0-1.5-0.2-2.1-0.5c-0.6-0.3-1.1-0.8-1.5-1.5c-0.3-0.6-0.5-1.4-0.5-2.3c0-0.7,0.1-1.3,0.3-1.8c0.2-0.5,0.4-1,0.6-1.2
		c0.2-0.2,0.4-0.4,0.8-0.7c0.4-0.2,0.7-0.4,1.1-0.6c0.5-0.2,1-0.3,1.5-0.3c0.7,0,1.3,0.2,1.8,0.5C106.8,216.5,107.2,217,107.4,217.5
		z M106.2,219.1c0-0.9-0.2-1.6-0.6-2.1c-0.4-0.4-0.9-0.7-1.5-0.7c-0.7,0-1.2,0.2-1.6,0.7c-0.4,0.5-0.6,1.2-0.6,2.3
		c0.2,0,0.5,0,0.9,0.1c0.9,0,1.5,0,1.8,0c0.8,0,1.3,0,1.5,0C106.2,219.3,106.2,219.2,106.2,219.1z M114,215.8c-0.2,0-0.5,0-0.7,0.1
		c-0.2,0.1-0.4,0.2-0.6,0.4c-0.1,0.1-0.3,0.3-0.5,0.6c-0.2,0.3-0.5,0.6-0.7,0.9c0-0.8,0-1.3,0.1-1.7c0-0.1,0-0.1,0-0.1
		c0-0.1,0-0.1,0-0.1c0,0-0.1,0-0.1,0c0,0-0.1,0-0.2,0.1c-0.5,0.3-1.4,0.5-2.6,0.7v0.5c0.7,0,1.1,0,1.1,0c0.1,0,0.2,0.1,0.2,0.1
		c0,0.1,0.1,0.3,0.1,0.6c0,0.5,0,1.1,0,1.5v1.1c0,0.1,0,0.9,0,2.5c0,0.3,0,0.5-0.1,0.6c0,0.1-0.1,0.1-0.1,0.2c0,0-0.1,0.1-0.2,0.1
		c-0.1,0-0.4,0-1.1,0v0.5c0.7,0,1.4-0.1,2.2-0.1c0.7,0,1.6,0,2.6,0.1v-0.5c-0.8-0.1-1.3-0.1-1.4-0.2c-0.1,0-0.1-0.1-0.2-0.1
		c0,0-0.1-0.1-0.1-0.2c0-0.1,0-0.3,0-0.7c0-1,0-1.8,0-2.1v-0.9c0-0.8,0.2-1.3,0.5-1.7c0.3-0.4,0.7-0.6,1.2-0.6
		c0.3,0,0.5,0.1,0.7,0.2c0.2,0.1,0.3,0.3,0.5,0.6h0.4c0-0.6,0.1-1.3,0.1-2.1l-0.1-0.1C114.5,215.9,114.2,215.8,114,215.8z M127,217
		c0.8,0.8,1.2,1.8,1.2,3c0,0.9-0.2,1.7-0.6,2.4c-0.4,0.7-1,1.3-1.7,1.7c-0.7,0.4-1.5,0.6-2.4,0.6c-0.7,0-1.3-0.1-1.7-0.3
		c-0.5-0.2-0.9-0.5-1.2-0.9c-0.3-0.4-0.5-0.7-0.7-1.1c-0.3-0.7-0.4-1.3-0.4-2.1c0-1.3,0.4-2.4,1.3-3.3c0.8-0.8,1.9-1.3,3.2-1.3
		C125.2,215.8,126.2,216.2,127,217z M126.5,220.7c0-0.9-0.1-1.8-0.4-2.4c-0.3-0.7-0.6-1.2-1-1.5c-0.4-0.3-0.9-0.4-1.4-0.4
		c-0.7,0-1.3,0.3-1.8,0.8c-0.5,0.5-0.7,1.4-0.7,2.5c0,0.7,0.1,1.5,0.4,2.2c0.2,0.8,0.6,1.3,1,1.7c0.5,0.4,0.9,0.5,1.5,0.5
		c0.7,0,1.3-0.3,1.7-0.8C126.3,222.7,126.5,221.8,126.5,220.7z M133.8,211.1c-0.3,0-0.6,0.1-0.8,0.2c-0.2,0.1-0.5,0.3-0.8,0.7
		c-0.6,0.6-1,1-1.2,1.4c-0.2,0.3-0.3,0.5-0.4,0.9c-0.1,0.3-0.1,0.9-0.1,1.6v0.5c-0.4,0.2-0.8,0.4-1.2,0.6v0.4l1.2-0.1v3.1
		c0,1.6,0,2.5,0,2.6c0,0.3-0.1,0.5-0.1,0.6c0,0.1-0.1,0.1-0.2,0.1c-0.1,0-0.2,0.1-0.3,0.1l-0.8,0v0.5c1.2,0,2-0.1,2.3-0.1
		c0.3,0,1.1,0,2.5,0.1v-0.5c-0.8-0.1-1.3-0.1-1.4-0.2c-0.1,0-0.1-0.1-0.2-0.1c0,0-0.1-0.1-0.1-0.2c0-0.1,0-0.3,0-0.7
		c0-1,0-1.8,0-2.1v-3.2c0.5,0,0.9,0,1.1,0c0.2,0,0.6,0,1.1,0l0.2-0.9l-0.1-0.1c-0.4,0-0.9,0.1-1.4,0.1h-0.9v-1.8
		c0-0.7,0-1.2,0.1-1.5c0.1-0.2,0.2-0.4,0.4-0.6c0.2-0.1,0.5-0.2,0.8-0.2c0.2,0,0.4,0,0.6,0.1c0.2,0.1,0.4,0.2,0.5,0.3l0.2-0.1l0-1.5
		C134.3,211.2,134,211.1,133.8,211.1z M148.9,223.6c-1,0.6-2.2,1-3.4,1.1c0.3,0,0.6,0.1,0.9,0.2c0.3,0.1,0.6,0.2,1.1,0.4
		c1.1,0.4,1.8,0.7,2.3,0.8c0.5,0.1,0.9,0.2,1.3,0.2c0.2,0,0.5-0.1,0.9-0.2v0.5c-0.1,0.1-0.3,0.2-0.4,0.3c-0.3,0.2-0.5,0.3-0.6,0.4
		c-0.1,0.1-0.2,0.2-0.4,0.3c-0.1,0-0.3,0-0.6-0.1c-0.3,0-0.6-0.1-0.9-0.2c-0.3-0.1-0.9-0.3-1.7-0.5c-1.5-0.5-2.4-0.8-2.8-0.8
		c-0.1,0-0.2,0-0.4,0.1c-0.1,0-0.3,0.1-0.4,0.2l-0.8,0.5v-0.6c1-0.7,1.7-1.2,2.3-1.4c-1.5,0-2.7-0.2-3.6-0.7
		c-0.9-0.5-1.7-1.3-2.2-2.3c-0.6-1.1-0.8-2.2-0.8-3.5c0-1.9,0.6-3.5,1.9-4.7c1.2-1.2,2.9-1.8,4.9-1.8c1,0,1.9,0.1,2.7,0.4
		c0.8,0.3,1.5,0.7,2,1.2c0.5,0.5,0.9,1.1,1.2,1.7c0.4,0.8,0.6,1.8,0.6,2.8c0,1.3-0.3,2.4-0.8,3.4C150.7,222.1,149.9,223,148.9,223.6
		z M149.6,221.2c0.4-0.9,0.5-1.9,0.5-3c0-0.9-0.1-1.8-0.4-2.5c-0.2-0.8-0.6-1.4-1-1.9c-0.4-0.5-0.9-0.9-1.6-1.2
		c-0.6-0.3-1.3-0.4-2.1-0.4c-1.4,0-2.5,0.5-3.4,1.3c-0.8,0.9-1.2,2.2-1.2,4c0,0.6,0.1,1.2,0.2,1.9c0.2,0.7,0.4,1.3,0.6,1.8
		c0.3,0.5,0.6,1,1,1.3c0.4,0.4,0.8,0.7,1.4,0.9c0.5,0.2,1.1,0.3,1.8,0.3c0.9,0,1.8-0.2,2.5-0.7C148.7,222.8,149.2,222.1,149.6,221.2
		z M160.1,223.9l0.6,0.1v0.5c-0.5,0-0.9-0.1-1.3-0.1c-0.4,0-0.8,0-1.4,0.1l0-1.6c-1.2,0.9-1.9,1.4-2.1,1.5c-0.2,0.1-0.5,0.2-0.8,0.2
		c-0.7,0-1.3-0.2-1.7-0.6c-0.4-0.4-0.6-0.9-0.6-1.5c0-0.4,0.1-0.8,0.2-1.1c0.1-0.3,0.3-0.6,0.5-0.8c0.2-0.2,0.4-0.3,0.6-0.4
		c0.3-0.2,0.9-0.3,1.7-0.5c0.8-0.2,1.5-0.3,2.3-0.4c0-0.6-0.1-1-0.2-1.3c-0.1-0.3-0.4-0.6-0.7-0.8c-0.3-0.2-0.7-0.3-1.2-0.3
		c-0.3,0-0.6,0-0.9,0.1c-0.3,0.1-0.4,0.2-0.5,0.2l-0.2,0.3c-0.2,0.4-0.3,0.6-0.4,0.8l-0.5-0.1c0-0.1,0-0.3,0-0.6c0-0.2,0-0.5,0-0.6
		c0.7-0.5,1.4-0.8,1.8-1c0.4-0.1,0.8-0.2,1.2-0.2c0.7,0,1.2,0.1,1.7,0.4c0.5,0.3,0.8,0.6,1,1.1c0.2,0.3,0.2,0.8,0.2,1.4l0,1.6v2.7
		c0,0.3,0,0.5,0.1,0.6c0,0.1,0.1,0.2,0.2,0.2C159.8,223.8,159.9,223.8,160.1,223.9z M158,219.7c-0.8,0.1-1.4,0.3-2,0.4
		c-0.5,0.2-0.9,0.3-1.1,0.5c-0.1,0.1-0.3,0.3-0.4,0.4c-0.1,0.3-0.2,0.6-0.2,1c0,0.4,0.1,0.8,0.4,1c0.2,0.2,0.6,0.4,1,0.4
		c0.4,0,0.8-0.1,1.2-0.3c0.4-0.2,0.8-0.6,1.2-1V219.7z M163.9,217.3c0.6,0,1,0,1.3,0c0.3,0,0.6,0,1,0l0.2-0.8l-0.1-0.1
		c-0.2,0-0.4,0-0.7,0c-0.6,0-0.9,0-0.9,0c-0.1,0-0.4,0-0.8,0c0.1-1.7,0.1-2.8,0.2-3.3l-0.2-0.2c-0.4,0.2-0.9,0.5-1.5,0.7v2.7
		c-0.3,0.2-0.8,0.4-1.3,0.6v0.4c0.4,0,0.7,0,1,0h0.4v3.7c0,0.1,0,0.2,0,0.3c0,0.5,0,0.9,0,1.3c0,0.4,0.1,0.7,0.2,0.9
		c0.1,0.2,0.2,0.4,0.4,0.5c0.2,0.1,0.3,0.2,0.5,0.3c0.2,0.1,0.4,0.1,0.7,0.1c0.3,0,0.5,0,0.7,0c0.2,0,0.4-0.1,0.6-0.2
		c0.3-0.2,0.5-0.5,0.8-0.7l-0.1-0.3c-0.2,0.1-0.4,0.1-0.6,0.2c-0.2,0-0.3,0-0.6,0c-0.3,0-0.5-0.1-0.7-0.2c-0.1-0.1-0.2-0.2-0.3-0.3
		c-0.1-0.1-0.1-0.3-0.2-0.5c0-0.2,0-0.7,0-1.6L163.9,217.3z M174.2,223.9l0.6,0.1v0.5c-0.5,0-0.9-0.1-1.3-0.1c-0.4,0-0.8,0-1.4,0.1
		l0-1.6c-1.2,0.9-1.9,1.4-2.1,1.5c-0.2,0.1-0.5,0.2-0.8,0.2c-0.7,0-1.3-0.2-1.7-0.6c-0.4-0.4-0.6-0.9-0.6-1.5c0-0.4,0.1-0.8,0.2-1.1
		c0.1-0.3,0.3-0.6,0.5-0.8c0.2-0.2,0.4-0.3,0.6-0.4c0.3-0.2,0.9-0.3,1.7-0.5c0.8-0.2,1.5-0.3,2.3-0.4c0-0.6-0.1-1-0.2-1.3
		c-0.1-0.3-0.4-0.6-0.7-0.8c-0.3-0.2-0.7-0.3-1.2-0.3c-0.3,0-0.6,0-0.9,0.1c-0.3,0.1-0.4,0.2-0.5,0.2l-0.2,0.3
		c-0.2,0.4-0.3,0.6-0.4,0.8l-0.5-0.1c0-0.1,0-0.3,0-0.6c0-0.2,0-0.5,0-0.6c0.7-0.5,1.4-0.8,1.8-1c0.4-0.1,0.8-0.2,1.2-0.2
		c0.7,0,1.2,0.1,1.7,0.4c0.5,0.3,0.8,0.6,1,1.1c0.2,0.3,0.2,0.8,0.2,1.4l0,1.6v2.7c0,0.3,0,0.5,0.1,0.6c0,0.1,0.1,0.2,0.2,0.2
		C173.9,223.8,174.1,223.8,174.2,223.9z M172.2,219.7c-0.8,0.1-1.4,0.3-2,0.4c-0.5,0.2-0.9,0.3-1.1,0.5c-0.1,0.1-0.3,0.3-0.4,0.4
		c-0.2,0.3-0.2,0.6-0.2,1c0,0.4,0.1,0.8,0.4,1c0.2,0.2,0.6,0.4,1,0.4c0.4,0,0.8-0.1,1.2-0.3c0.4-0.2,0.8-0.6,1.1-1V219.7z
		 M180.9,215.8c-0.2,0-0.5,0-0.7,0.1c-0.2,0.1-0.4,0.2-0.6,0.4c-0.1,0.1-0.3,0.3-0.5,0.6c-0.2,0.3-0.5,0.6-0.7,0.9
		c0-0.8,0-1.3,0.1-1.7c0-0.1,0-0.1,0-0.1c0-0.1,0-0.1,0-0.1c0,0-0.1,0-0.1,0c0,0-0.1,0-0.2,0.1c-0.5,0.3-1.4,0.5-2.6,0.7v0.5
		c0.7,0,1.1,0,1.2,0c0.1,0,0.2,0.1,0.2,0.1c0,0.1,0.1,0.3,0.1,0.6c0,0.5,0,1.1,0,1.5v1.1c0,0.1,0,0.9,0,2.5c0,0.3,0,0.5-0.1,0.6
		c0,0.1-0.1,0.1-0.1,0.2c0,0-0.1,0.1-0.2,0.1c-0.1,0-0.4,0-1.1,0v0.5c0.7,0,1.4-0.1,2.2-0.1c0.7,0,1.6,0,2.6,0.1v-0.5
		c-0.8-0.1-1.3-0.1-1.4-0.2c-0.1,0-0.2-0.1-0.2-0.1c0,0-0.1-0.1-0.1-0.2c0-0.1,0-0.3,0-0.7c0-1,0-1.8,0-2.1v-0.9
		c0-0.8,0.2-1.3,0.5-1.7c0.3-0.4,0.7-0.6,1.2-0.6c0.3,0,0.5,0.1,0.7,0.2c0.2,0.1,0.3,0.3,0.5,0.6h0.4c0-0.6,0.1-1.3,0.2-2.1
		l-0.1-0.1C181.4,215.9,181.1,215.8,180.9,215.8z M193.2,211.7c-0.4,0-1.2,0-2.3,0c-1.1,0-1.9,0-2.4,0c-0.6,0-1.4,0-2.3-0.1v0.6
		c0.7,0,1.1,0,1.3,0.1c0.1,0.1,0.3,0.1,0.3,0.2c0.1,0.1,0.1,0.4,0.1,1c0,0.8,0,1.6,0,2.4v4.1c0,1.6,0,2.4,0,2.5
		c0,0.5-0.1,0.7-0.1,0.9c-0.1,0.1-0.2,0.2-0.3,0.2c-0.2,0.1-0.6,0.1-1.3,0.1v0.6c1.3,0,2.2-0.1,2.9-0.1c0.7,0,1.5,0,2.2,0.1v-0.6
		c-0.7,0-1.1,0-1.3-0.1c-0.2,0-0.3-0.1-0.3-0.2c-0.1-0.1-0.1-0.4-0.1-1c0-0.8,0-1.6,0-2.4v-1.8c0.4,0,0.9,0,1.3,0
		c1.2,0,1.9,0,2.3,0.1c0.2,0,0.3,0.1,0.3,0.2c0,0,0.1,0.4,0.1,1l0.1,0.6h0.6l-0.1-2.2l0.1-2h-0.6l-0.1,0.6c-0.1,0.4-0.1,0.7-0.2,0.8
		c-0.1,0.1-0.2,0.1-0.3,0.1c-0.4,0.1-1,0.1-1.8,0.1c-0.5,0-1.1,0-1.7,0v-2c0-1.2,0-1.9,0-2c0-0.3,0-0.6,0.1-0.9
		c0.6-0.1,1.2-0.1,1.8-0.1c0.6,0,1.1,0,1.6,0.1c0.4,0,0.8,0.1,1.1,0.2c0.1,0.4,0.2,0.9,0.2,1.7h0.6c0-1.3,0.1-2.2,0.3-2.7
		c-0.3,0-0.6,0-1,0C194,211.7,193.6,211.7,193.2,211.7z M203.6,217c0.8,0.8,1.2,1.8,1.2,3c0,0.9-0.2,1.7-0.6,2.4
		c-0.4,0.7-1,1.3-1.7,1.7c-0.7,0.4-1.5,0.6-2.4,0.6c-0.7,0-1.3-0.1-1.7-0.3c-0.5-0.2-0.9-0.5-1.1-0.9c-0.3-0.4-0.5-0.7-0.7-1.1
		c-0.3-0.7-0.4-1.3-0.4-2.1c0-1.3,0.4-2.4,1.3-3.3c0.8-0.8,1.9-1.3,3.2-1.3C201.8,215.8,202.8,216.2,203.6,217z M203,220.7
		c0-0.9-0.1-1.8-0.4-2.4c-0.3-0.7-0.6-1.2-1-1.5c-0.4-0.3-0.9-0.4-1.4-0.4c-0.7,0-1.3,0.3-1.8,0.8c-0.4,0.5-0.7,1.4-0.7,2.5
		c0,0.7,0.1,1.5,0.4,2.2c0.2,0.8,0.6,1.3,1,1.7c0.5,0.4,1,0.5,1.5,0.5c0.7,0,1.3-0.3,1.7-0.8C202.8,222.7,203,221.8,203,220.7z
		 M214.2,223.8c-0.1,0-0.1-0.1-0.1-0.1c-0.1-0.1-0.1-0.4-0.1-0.7c0-0.1,0-0.5,0-1.3l0-1.2v-1.2c0-0.3,0-1,0.1-2c0-0.6,0-0.9,0.1-1.1
		c0-0.1,0-0.1,0-0.2c0-0.1,0-0.1,0-0.1c0,0-0.1,0-0.1,0c-0.1,0-0.1,0-0.2,0.1c-0.6,0.3-1.5,0.5-2.7,0.7v0.5c0.2,0,0.4,0,0.8,0
		c0.2,0,0.4,0,0.5,0.1c0.1,0,0.1,0.1,0.1,0.1c0,0.1,0.1,0.4,0.1,0.8c0,0.6,0,1,0,1.2v0.7c0,0.5,0,1,0,1.6c0,0.2,0,0.3-0.1,0.4
		c0,0.1-0.1,0.2-0.3,0.4c-0.2,0.2-0.3,0.4-0.5,0.6c-0.2,0.2-0.5,0.3-0.8,0.4c-0.3,0.1-0.6,0.1-0.8,0.1c-0.4,0-0.8-0.1-1-0.3
		c-0.3-0.2-0.5-0.4-0.6-0.7c-0.1-0.3-0.1-0.8-0.1-1.5v-1.7c0-0.3,0-1,0-2c0-0.5,0-0.9,0.1-1.1c0-0.1,0-0.1,0-0.2c0-0.1,0-0.1,0-0.1
		c0,0-0.1,0-0.1,0c-0.1,0-0.1,0-0.2,0.1c-0.6,0.3-1.5,0.5-2.8,0.7v0.5c0.2,0,0.4,0,0.8,0c0.2,0,0.4,0,0.5,0.1c0.1,0,0.1,0.1,0.1,0.1
		c0,0.1,0.1,0.4,0.1,0.8c0,0.6,0,1,0,1.2v1.5c0,0.2,0,0.4,0,0.5c0,0.2,0,0.4,0,0.6c0,0.4,0.1,0.8,0.1,1.1c0.1,0.3,0.2,0.6,0.4,0.8
		c0.2,0.3,0.5,0.5,0.8,0.6c0.3,0.1,0.7,0.2,1.2,0.2c0.4,0,0.7,0,0.9-0.1c0.3-0.1,0.5-0.2,0.8-0.3c0.1-0.1,0.2-0.1,0.3-0.2
		c0.5-0.5,0.9-0.9,1.3-1.2c0,0.6,0,1.1-0.1,1.6c0.4,0,0.9-0.1,1.3-0.1c0.4,0,1,0,1.7,0.1v-0.5c-0.6,0-0.9,0-1,0
		C214.3,223.9,214.3,223.8,214.2,223.8z M224.7,223.7c-0.1-0.1-0.1-0.2-0.1-0.4c0-0.3-0.1-0.8-0.1-1.6v-1.6c0-1.2,0-2-0.1-2.2
		c-0.1-0.4-0.2-0.8-0.4-1.1c-0.2-0.3-0.5-0.5-1-0.7c-0.4-0.2-0.9-0.3-1.4-0.3c-0.4,0-0.9,0.1-1.4,0.3l-1.6,1.4c0-0.7,0-1.1,0-1.4
		c0-0.1,0-0.1,0-0.1c0-0.1,0-0.1,0-0.1c0,0-0.1,0-0.1,0c0,0-0.1,0-0.2,0.1c-0.5,0.3-1.4,0.5-2.6,0.7v0.5c0.7,0,1.1,0,1.1,0
		c0.1,0,0.2,0.1,0.2,0.1c0,0.1,0.1,0.3,0.1,0.6c0,0.5,0,1.1,0,1.5v1.1c0,1.6,0,2.5,0,2.6c0,0.3-0.1,0.5-0.1,0.6
		c0,0.1-0.1,0.1-0.2,0.1c-0.1,0-0.2,0.1-0.3,0.1l-0.8,0v0.5c1.1,0,1.9-0.1,2.4-0.1c0.6,0,1.2,0,1.9,0.1v-0.5c-0.6,0-0.9,0-1,0
		c-0.1,0-0.2-0.1-0.2-0.1c0,0-0.1-0.1-0.1-0.1c-0.1-0.1-0.1-0.4-0.1-0.7c0-0.1,0-1,0-2.5v-1.1c0-0.6,0.1-1.1,0.2-1.4
		c0.2-0.3,0.4-0.5,0.8-0.7c0.4-0.2,0.8-0.3,1.2-0.3c0.5,0,0.9,0.1,1.3,0.4c0.4,0.2,0.6,0.6,0.7,1c0.1,0.3,0.1,0.9,0.1,1.8v1.5
		c0,0.4,0,1.3-0.1,2.8c0.8,0,1.3-0.1,1.6-0.1c0.4,0,0.9,0,1.4,0.1v-0.5l-0.9,0C224.8,223.9,224.7,223.8,224.7,223.7z M235,223.8
		c0.1,0.1,0.5,0.1,1.1,0.2v0.5c-0.7,0-1.2-0.1-1.5-0.1c-0.3,0-0.8,0-1.6,0.1c0-0.4,0-1,0-1.7c-0.2,0.2-0.6,0.4-0.9,0.8
		c-0.4,0.3-0.7,0.6-0.9,0.8c-0.5,0.1-0.9,0.2-1.2,0.2c-0.7,0-1.3-0.2-1.8-0.5c-0.6-0.3-1-0.8-1.3-1.5c-0.3-0.6-0.5-1.3-0.5-2.1
		c0-0.6,0.1-1.2,0.3-1.7c0.2-0.5,0.4-0.9,0.7-1.2c0.2-0.2,0.5-0.4,1.1-0.8c0.6-0.3,1-0.6,1.4-0.7c0.4-0.1,0.7-0.2,1.1-0.2
		c0.4,0,0.7,0,1.1,0.1c0.4,0.1,0.7,0.2,1,0.4V214c0-0.8,0-1.3-0.1-1.5c0-0.1-0.1-0.1-0.1-0.1c-0.1-0.1-0.5-0.1-1.2-0.1v-0.5
		c0.7-0.1,1.2-0.2,1.7-0.3c0.4-0.1,0.9-0.2,1.3-0.4l0.1,0.1c0,0.5-0.1,1.5-0.1,2.9l0,1.4v5.6c0,0.6,0,1.1,0,1.6
		c0,0.4,0.1,0.7,0.1,0.8C234.8,223.7,234.9,223.7,235,223.8z M233.1,217.9c-0.4-0.4-0.8-0.8-1.3-1c-0.4-0.2-0.9-0.3-1.3-0.3
		c-0.5,0-0.9,0.1-1.3,0.4c-0.4,0.2-0.7,0.6-0.9,1.1c-0.2,0.5-0.3,1.1-0.3,1.8c0,1.1,0.3,1.9,0.8,2.5c0.5,0.6,1.2,0.9,1.9,0.9
		c0.4,0,0.7-0.1,1.1-0.2c0.3-0.2,0.6-0.4,0.8-0.7c0.2-0.3,0.4-0.7,0.4-1.1c0-0.3,0.1-0.9,0.1-1.9V217.9z M244.3,223.9l0.6,0.1v0.5
		c-0.5,0-0.9-0.1-1.3-0.1c-0.4,0-0.8,0-1.4,0.1l0-1.6c-1.2,0.9-1.9,1.4-2.1,1.5c-0.2,0.1-0.5,0.2-0.8,0.2c-0.7,0-1.3-0.2-1.7-0.6
		c-0.4-0.4-0.6-0.9-0.6-1.5c0-0.4,0.1-0.8,0.2-1.1c0.1-0.3,0.3-0.6,0.5-0.8c0.2-0.2,0.4-0.3,0.6-0.4c0.3-0.2,0.9-0.3,1.7-0.5
		c0.8-0.2,1.5-0.3,2.3-0.4c0-0.6-0.1-1-0.2-1.3c-0.1-0.3-0.4-0.6-0.7-0.8c-0.3-0.2-0.7-0.3-1.2-0.3c-0.3,0-0.6,0-0.9,0.1
		c-0.3,0.1-0.4,0.2-0.5,0.2l-0.2,0.3c-0.2,0.4-0.3,0.6-0.4,0.8l-0.5-0.1c0-0.1,0-0.3,0-0.6c0-0.2,0-0.5,0-0.6c0.7-0.5,1.4-0.8,1.8-1
		c0.4-0.1,0.8-0.2,1.2-0.2c0.7,0,1.2,0.1,1.7,0.4c0.5,0.3,0.8,0.6,1,1.1c0.2,0.3,0.2,0.8,0.2,1.4l0,1.6v2.7c0,0.3,0,0.5,0.1,0.6
		c0,0.1,0.1,0.2,0.2,0.2C244,223.8,244.1,223.8,244.3,223.9z M242.3,219.7c-0.8,0.1-1.4,0.3-2,0.4c-0.5,0.2-0.9,0.3-1.1,0.5
		c-0.1,0.1-0.2,0.3-0.4,0.4c-0.2,0.3-0.2,0.6-0.2,1c0,0.4,0.1,0.8,0.4,1c0.2,0.2,0.6,0.4,1,0.4c0.4,0,0.8-0.1,1.2-0.3
		c0.4-0.2,0.8-0.6,1.1-1V219.7z M248.2,217.3c0.6,0,1,0,1.3,0c0.3,0,0.7,0,1,0l0.2-0.8l-0.1-0.1c-0.2,0-0.4,0-0.7,0
		c-0.5,0-0.9,0-0.9,0c-0.1,0-0.4,0-0.8,0c0.1-1.7,0.1-2.8,0.2-3.3l-0.2-0.2c-0.4,0.2-0.9,0.5-1.5,0.7v2.7c-0.3,0.2-0.8,0.4-1.4,0.6
		v0.4c0.4,0,0.7,0,1,0h0.4v3.7c0,0.1,0,0.2,0,0.3c0,0.5,0,0.9,0,1.3c0,0.4,0.1,0.7,0.2,0.9c0.1,0.2,0.2,0.4,0.4,0.5
		c0.2,0.1,0.3,0.2,0.5,0.3c0.2,0.1,0.4,0.1,0.7,0.1c0.2,0,0.5,0,0.7,0c0.2,0,0.4-0.1,0.6-0.2c0.3-0.2,0.5-0.5,0.8-0.7l-0.1-0.3
		c-0.2,0.1-0.4,0.1-0.6,0.2c-0.2,0-0.3,0-0.6,0c-0.3,0-0.5-0.1-0.7-0.2c-0.1-0.1-0.2-0.2-0.3-0.3c-0.1-0.1-0.1-0.3-0.2-0.5
		c0-0.2,0-0.7,0-1.6L248.2,217.3z M253,213.9c0.3,0,0.5-0.1,0.7-0.3c0.2-0.2,0.3-0.4,0.3-0.7c0-0.3-0.1-0.5-0.3-0.7
		c-0.2-0.2-0.4-0.3-0.7-0.3c-0.3,0-0.5,0.1-0.7,0.3c-0.2,0.2-0.3,0.4-0.3,0.7c0,0.3,0.1,0.5,0.3,0.7
		C252.5,213.8,252.8,213.9,253,213.9z M254.1,223.8c0,0-0.1-0.1-0.1-0.1c-0.1-0.1-0.1-0.4-0.1-0.7c0-0.1,0-1,0-2.5v-1.6
		c0-0.7,0-1.6,0.1-2.9l-0.2-0.1c-0.8,0.4-1.7,0.6-2.9,0.7v0.5c0.7,0,1.1,0,1.2,0.1c0.1,0,0.2,0.1,0.2,0.2c0.1,0.2,0.1,0.7,0.1,1.6
		v1.6c0,1.6,0,2.5,0,2.6c0,0.3-0.1,0.5-0.1,0.6c0,0.1-0.1,0.1-0.2,0.1c-0.1,0-0.2,0.1-0.3,0.1l-0.8,0v0.5c1.1,0,1.8-0.1,2.3-0.1
		c0.5,0,1.2,0,2.1,0.1v-0.5c-0.6,0-0.9,0-1,0C254.3,223.9,254.2,223.8,254.1,223.8z M263.5,217c0.8,0.8,1.2,1.8,1.2,3
		c0,0.9-0.2,1.7-0.6,2.4c-0.4,0.7-1,1.3-1.7,1.7c-0.7,0.4-1.5,0.6-2.4,0.6c-0.7,0-1.3-0.1-1.7-0.3c-0.5-0.2-0.9-0.5-1.1-0.9
		c-0.3-0.4-0.5-0.7-0.7-1.1c-0.3-0.7-0.4-1.3-0.4-2.1c0-1.3,0.4-2.4,1.3-3.3c0.8-0.8,1.9-1.3,3.2-1.3
		C261.7,215.8,262.7,216.2,263.5,217z M262.9,220.7c0-0.9-0.1-1.8-0.4-2.4c-0.3-0.7-0.6-1.2-1-1.5c-0.4-0.3-0.9-0.4-1.4-0.4
		c-0.7,0-1.3,0.3-1.8,0.8c-0.5,0.5-0.7,1.4-0.7,2.5c0,0.7,0.1,1.5,0.4,2.2c0.2,0.8,0.6,1.3,1,1.7c0.5,0.4,1,0.5,1.5,0.5
		c0.7,0,1.3-0.3,1.7-0.8C262.7,222.7,262.9,221.8,262.9,220.7z M274.3,223.9c-0.1,0-0.2-0.1-0.3-0.1c-0.1-0.1-0.1-0.2-0.1-0.4
		c0-0.3-0.1-0.8-0.1-1.6v-1.6c0-1.2,0-2-0.1-2.2c-0.1-0.4-0.2-0.8-0.4-1.1c-0.2-0.3-0.5-0.5-1-0.7c-0.4-0.2-0.9-0.3-1.4-0.3
		c-0.4,0-0.9,0.1-1.4,0.3l-1.6,1.4c0-0.7,0-1.1,0-1.4c0-0.1,0-0.1,0-0.1c0-0.1,0-0.1,0-0.1c0,0-0.1,0-0.1,0c0,0-0.1,0-0.2,0.1
		c-0.5,0.3-1.4,0.5-2.6,0.7v0.5c0.7,0,1.1,0,1.1,0c0.1,0,0.2,0.1,0.2,0.1c0,0.1,0.1,0.3,0.1,0.6c0,0.5,0,1.1,0,1.5v1.1
		c0,1.6,0,2.5,0,2.6c0,0.3-0.1,0.5-0.1,0.6c0,0.1-0.1,0.1-0.2,0.1c-0.1,0-0.2,0.1-0.3,0.1l-0.8,0v0.5c1.1,0,1.9-0.1,2.4-0.1
		c0.6,0,1.2,0,1.9,0.1v-0.5c-0.6,0-0.9,0-1,0c-0.1,0-0.2-0.1-0.2-0.1c0,0-0.1-0.1-0.1-0.1c-0.1-0.1-0.1-0.4-0.1-0.7c0-0.1,0-1,0-2.5
		v-1.1c0-0.6,0.1-1.1,0.2-1.4c0.2-0.3,0.4-0.5,0.8-0.7c0.4-0.2,0.8-0.3,1.2-0.3c0.5,0,0.9,0.1,1.3,0.4c0.4,0.2,0.6,0.6,0.7,1
		c0.1,0.3,0.1,0.9,0.1,1.8v1.5c0,0.4,0,1.3-0.1,2.8c0.8,0,1.3-0.1,1.6-0.1c0.4,0,0.9,0,1.4,0.1v-0.5L274.3,223.9z"/>
	<path class="st1" d="M394.5,142.9c5.5,0,9.9-3.3,11-8.6c1.4,2.1,2.5,2.9,5.9,3v0h7.4v0h13.7v0h6.6h0.8h5.9h0.8h6.6v0h30.5v0h6.5v0
		h4c3.8,0,5.6-2,5.6-6.1v-15.7h-3.8v14.4c0,1.2-0.1,2-0.3,2.4c-0.4,0.7-1.1,1.1-2.4,1.1h-3.2v0h-5.6v0h-3.8
		c-0.1-7.7-3-11.6-8.7-11.6c-3.5,0-6.8,1.8-9.9,5.9l0.5-12.3H459v18h-6.5v0h-6h-0.8h-5.9h-0.8h-5.6v0h-6.4c0.5-0.6,0.8-1.9,0.8-3.9
		v-7.6h-3.7v7.8c0,1.2-0.1,2.1-0.4,2.6c-0.4,0.8-1.1,1.2-2.2,1.2H418v0h-5.6v0H411c-1.9,0-3.2-1-4.6-3.5c-1.5-2.7-3.7-4-6.6-4h-1.5
		v3.5c0.2,0,0.4,0,0.6,0c2.1,0,3.4,1.5,3.4,3.6c0,3.5-3.3,6.4-7.6,6.4c-4.9,0-7.9-3.3-7.9-8.5v-3.4H383v3.8
		C383,137.8,388.1,142.9,394.5,142.9z M471.8,125.2c3.2,0,5.2,2.8,5.2,7.1c0,0.4,0,0.7,0,1.1h-15C464.1,128.6,468,125.2,471.8,125.2
		z M395.9,150.4v-3.8h3.7v3.8H395.9z M389.5,150.4v-3.8h3.7v3.8H389.5z M424.2,144.7v-3.8h3.7v3.8H424.2z M503.3,115.3h3.7v21.9
		h-3.7V115.3z M517.5,142.9v-3.3c3.1,0,4.7-1.6,4.7-4.8v-13h3.8v11.5h5.8v0h5.4h0.8h5.9h0.8h5.9h0.8h5.8v0h18.4
		c0-2.1-0.6-3.9-1.8-5.4c-1.4-1.7-3.3-2.6-5.8-2.6h-7.7l6.6-10h4.5l-4.5,6.5h1.6c2.5,0,4.6,0.6,6.4,1.9c3.2,2.1,4.8,5.8,4.8,11.2
		v2.4h-21.6v0h-6.6h-0.8h-5.9h-0.8h-5.9H537h-6.6v0h-4.8C525.1,140.9,522,142.9,517.5,142.9z M525.9,118.7h-3.7V115h3.7V118.7z
		 M621.2,129.8c0,1.2-0.1,2-0.3,2.4c-0.4,0.7-1.1,1.1-2.4,1.1h-3.2v0h-2.2v-1c0-2.3-0.7-4.1-2.1-5.7c-1.4-1.5-3.2-2.3-5.4-2.3
		c-2.2,0-4.1,0.7-5.5,2.2c-1.4,1.5-2.1,3.3-2.1,5.6c0,0.4,0,0.7,0,1.1h-2.3h-1.3h-4.4v-11.5h-3.8v13c0,3.3-1.5,4.8-4.7,4.8v3.3
		c4.6,0,7.6-2,8.2-5.6h4.7h1.3h3.8c1.4,2,3.4,3,6,3c2.6,0,4.6-1,6.1-3h3.6v0h4c3.8,0,5.6-2,5.6-6.1v-15.7h-3.8V129.8z M608.5,135.4
		c-0.6,0.8-1.5,1.3-2.7,1.3c-2.3,0-3.8-2-3.8-4.4c0-1.2,0.3-2.2,0.9-3c0.7-0.9,1.6-1.4,2.7-1.4c1.2,0,2.1,0.5,2.8,1.4
		c0.6,0.8,0.9,1.9,0.9,3.1C609.3,133.6,609,134.6,608.5,135.4z M632.1,115.3v21.9h-3.7v-21.9H632.1z M407,185.1h3.7v3.8H407V185.1z
		 M413.4,185.1h3.7v3.8h-3.7V185.1z M432.2,159h3.7v3.8h-3.7V159z M468.3,159.4h3.8v15.8c0,4.1-1.9,6.2-5.7,6.2h-3v0h-14.5h-1h-25.2
		v0h-15.6v0h-5.5c-1.9,3.6-5.4,5.7-9.1,5.7c-5.9,0-10.7-5.3-10.7-11.7v-3.3h3.8v2.9c0,4.7,2.8,8.5,6.9,8.5c4,0,6.8-3.7,6.8-8.5
		v-15.6h3.8v16c0,0.7-0.1,1.4-0.2,2.1h4.1v0h3.6c1.1,0,1.9-0.4,2.3-1.2c0.3-0.5,0.4-1.4,0.4-2.6V166h3.7v7.7c0,2-0.3,3.3-0.8,4h6.3
		v0h18.6c0-2.1-0.6-3.9-1.8-5.4c-1.4-1.7-3.3-2.6-5.8-2.6c-0.8,0-1.8,0.2-2.8,0.7c-1.2,0.5-2.2,1.2-3,2.2c-0.4-0.7-1-1.7-1.8-3
		c1-1,2.2-1.8,3.6-2.4c1.5-0.7,3-1,4.5-1c2.3,0,4.4,0.5,6.1,1.6c3.1,1.9,4.8,5.2,5.1,10h2.6h1h2.5c1.1,0,1.9-0.4,2.3-1.2
		c0.3-0.5,0.4-1.4,0.4-2.6v-14.4h3.7v14.2c0,2-0.3,3.3-0.8,4h5.4v0h3.2c1.2,0,2-0.4,2.4-1.1c0.2-0.4,0.3-1.2,0.3-2.5V159.4z
		 M495.3,190.9h3.7v3.8h-3.7V190.9z M497.4,171.8h8.3v3.7c0,3.3-1.1,6.1-3.4,8.3c-2.2,2.2-5,3.3-8.2,3.3h-0.2c-3.3,0-6-1.1-8.3-3.3
		c-2.2-2.2-3.3-5-3.3-8.3v-3.8h3.8v3.4c0,2.5,0.7,4.5,2,6c1.4,1.6,3.4,2.4,5.9,2.4c4.9,0,7.6-2.7,8-8h-8.9c0-7.2,4.1-11.2,11.4-11.2
		v3.6c-1.9,0-3.3,0.2-4.3,0.7C499,169.2,498.1,170.3,497.4,171.8z M488.9,190.9h3.7v3.8h-3.7V190.9z M579,185.1h3.7v3.8H579V185.1z
		 M572.6,185.1h3.7v3.8h-3.7V185.1z M593.6,185.2h3.7v3.8h-3.7V185.2z M621.1,174c0,1.2-0.1,2-0.3,2.5c-0.4,0.8-1.1,1.1-2.4,1.1
		h-3.2v0h-5.8h-0.8H603v0h-6.5c0.5-0.6,0.8-1.9,0.8-4V166h-3.7v7.9c0,1.2-0.1,2.1-0.4,2.6c-0.4,0.8-1.1,1.2-2.3,1.2h-2.6v0H582
		c0.6-0.6,0.8-1.9,0.8-4V166h-3.7v7.9c0,1.2-0.1,2.1-0.4,2.6c-0.4,0.8-1.2,1.2-2.3,1.2h-3.6v0h-5.7v0h-3.8c-0.1-7.8-3-11.7-8.7-11.7
		c-3.6,0-6.8,1.8-10,5.9l0.5-12.4h-3.7v18.1h-6.5v0h-6H528h-5.4v0h-5.8V166H513v13c0,3.3-1.6,4.8-4.7,4.8v3.3c4.6,0,7.7-2,8.2-5.7
		h4.8v0h6.7h0.8h6.7v0h30.8v0h6.6h0.9h14.7v0H602v0h6.7h0.8h6.7v0h3.1c3.8,0,5.7-2,5.7-6.2v-15.8h-3.8V174z M559.3,177.6h-15.1
		c2.2-4.8,6.1-8.3,9.9-8.3c3.2,0,5.2,2.8,5.2,7.2C559.4,176.9,559.4,177.2,559.3,177.6z M628.4,159.4h3.7v22.1h-3.7V159.4z"/>
	<path class="st1" d="M0,115.1h15.9v3.4H3.8v7.3h10.3v3.4H3.8v7.6h12.1v3.4H0V115.1z M30.8,122.3h3.5v25.2h-3.6v-9.1
		c-1.3,1.6-2.8,2-4.6,2c-1.8,0-3.3-0.6-4.3-1.6c-1.8-1.8-2-4.9-2-7.6c0-2.7,0.2-5.8,2-7.6c1-1,2.5-1.6,4.3-1.6
		c1.9,0,3.3,0.5,4.7,2.1V122.3z M30.7,131.3c0-3.2-0.5-5.9-3.7-5.9c-3.2,0-3.7,2.8-3.7,5.9c0,3.2,0.5,6,3.7,6
		C30.3,137.2,30.7,134.4,30.7,131.3z M50.6,138.4v1.8h3.5v-17.9h-3.6v10.9c0,2.8-1.7,4-3.7,4c-2,0-3.6-1.2-3.6-4v-10.9h-3.6v11.4
		c0,2,0.4,3.7,1.8,5.1c1,1,2.5,1.6,4.4,1.6C47.7,140.4,49.4,139.8,50.6,138.4z M63.3,140.2v-17.9h-3.6v17.9H63.3z M63.4,115h-3.8
		v3.8h3.8V115z M72.5,129.3c0-2.8,1.7-4,3.7-4c2,0,3.6,1.2,3.6,4v10.9h3.6v-11.4c0-2-0.4-3.7-1.8-5.1c-1-1-2.5-1.6-4.4-1.6
		c-1.8,0-3.5,0.7-4.7,2v-1.8h-3.5v17.9h3.6V129.3z M102.9,130.7v1.6H91.4c0,3.1,1.6,5,4.5,5c2,0,3-0.6,4.3-1.8l2.3,2.2
		c-1.8,1.8-3.5,2.8-6.6,2.8c-4.4,0-8-2.4-8-9.2c0-5.8,3-9.1,7.5-9.1C100.1,122.1,102.9,125.6,102.9,130.7z M99.3,129.8
		c0-1.1-0.1-1.6-0.5-2.4c-0.6-1.3-1.8-2.3-3.5-2.3s-3,0.9-3.5,2.3c-0.3,0.8-0.4,1.3-0.5,2.4H99.3z M124.4,140.2l8.2-25.1h-4
		l-5.7,18.3l-5.7-18.3h-3.9l8.2,25.1H124.4z M148.3,130.7v1.6h-11.5c0,3.1,1.6,5,4.5,5c2,0,3-0.6,4.3-1.8l2.3,2.2
		c-1.8,1.8-3.5,2.8-6.6,2.8c-4.4,0-8-2.4-8-9.2c0-5.8,3-9.1,7.5-9.1C145.6,122.1,148.3,125.6,148.3,130.7z M144.8,129.8
		c0-1.1-0.1-1.6-0.5-2.4c-0.6-1.3-1.8-2.3-3.5-2.3c-1.7,0-3,0.9-3.5,2.3c-0.4,0.8-0.4,1.3-0.5,2.4H144.8z M157,117.2h-3.6v5.4h-2
		v2.8h2v9.9c0,2.6,1.5,5,4.9,5h2.1v-3.1H159c-1.3,0-2-0.8-2-2.1v-9.7h3.4v-2.8H157V117.2z M171.9,140.4c-4.4,0-8-2.4-8-9.2
		c0-5.8,3-9.1,7.5-9.1c4.7,0,7.5,3.5,7.5,8.6v1.6h-11.5c0,3.1,1.6,5,4.5,5c2,0,3-0.6,4.3-1.8l2.3,2.2
		C176.7,139.5,175,140.4,171.9,140.4z M167.5,129.8h8c0-1.1-0.1-1.6-0.5-2.4c-0.6-1.3-1.8-2.3-3.5-2.3c-1.7,0-3,0.9-3.5,2.3
		C167.6,128.2,167.5,128.7,167.5,129.8z M196.1,123.8c-1.2-1.2-2.5-1.7-4.2-1.7c-2,0-3.8,0.9-4.7,2.2v-1.9h-3.5v17.9h3.6v-10.9
		c0-2.5,1.6-4,3.5-4c1.2,0,1.8,0.4,2.7,1.2L196.1,123.8z M202.6,115h-3.8v3.8h3.8V115z M202.5,140.2v-17.9H199v17.9H202.5z
		 M215.4,125.3c2,0,3.6,1.2,3.6,4v10.9h3.6v-11.4c0-2-0.4-3.7-1.8-5.1c-1-1-2.6-1.6-4.4-1.6c-1.8,0-3.5,0.7-4.7,2v-1.8h-3.5v17.9
		h3.6v-10.9C211.7,126.6,213.4,125.3,215.4,125.3z M241,128.3v12h-3.5v-1.6c-1.3,1.3-2.5,1.8-4.7,1.8c-2.2,0-3.7-0.5-4.7-1.6
		c-0.9-1-1.4-2.3-1.4-3.8c0-3,2.1-5.2,6.1-5.2h4.7v-1.3c0-2.3-1.1-3.4-3.9-3.4c-2,0-2.9,0.5-3.9,1.7l-2.3-2.2c1.7-2,3.4-2.6,6.4-2.6
		C238.6,122.1,241,124.2,241,128.3z M237.5,132.3h-4.2c-2.1,0-3.2,1-3.2,2.6c0,1.6,1,2.5,3.2,2.5c1.4,0,2.4-0.1,3.3-1
		c0.5-0.5,0.8-1.4,0.8-2.6V132.3z M250,124.3v-1.9h-3.5v17.9h3.6v-10.9c0-2.5,1.6-4,3.5-4c1.2,0,1.8,0.4,2.7,1.2l2.7-2.7
		c-1.2-1.2-2.5-1.7-4.2-1.7C252.7,122.1,250.9,123,250,124.3z M267.4,143.8l7.8-21.5h-3.8l-4.1,12.6l-4.2-12.6h-3.8l6.2,17.1l-1,2.8
		c-0.5,1.4-1,1.9-2.5,1.9H261v3.3h1.4c1.4,0,2.7-0.3,3.6-1.3C266.6,145.5,267,144.8,267.4,143.8z M52.9,171.7L45.7,156h-3.8v25.1
		h3.8v-16.8l5.9,12.3h2.8l5.7-12.3v16.8h3.8V156h-3.8L52.9,171.7z M84,171.7v1.6H72.5c0,3.1,1.6,5,4.5,5c2,0,3-0.6,4.3-1.8l2.3,2.2
		c-1.8,1.8-3.5,2.8-6.6,2.8c-4.4,0-8-2.4-8-9.2c0-5.8,3-9.1,7.5-9.1C81.2,163,84,166.6,84,171.7z M80.4,170.7c0-1.1-0.1-1.6-0.5-2.4
		c-0.6-1.3-1.8-2.3-3.5-2.3c-1.7,0-3,0.9-3.5,2.3c-0.3,0.8-0.4,1.3-0.5,2.4H80.4z M98.7,156h3.6v25.1h-3.5v-1.9
		c-1.3,1.6-2.8,2.1-4.7,2.1c-1.8,0-3.4-0.6-4.3-1.6c-1.8-1.8-2-4.9-2-7.6c0-2.7,0.2-5.8,2-7.6c1-1,2.5-1.6,4.3-1.6
		c1.9,0,3.4,0.5,4.6,2V156z M98.7,172.2c0-3.2-0.5-5.9-3.7-5.9c-3.2,0-3.7,2.8-3.7,5.9c0,3.2,0.5,6,3.7,6
		C98.3,178.2,98.7,175.4,98.7,172.2z M107.9,159.7h3.8v-3.8h-3.8V159.7z M108,181.2h3.6v-17.9H108V181.2z M124.1,166.3
		c1.4,0,2.3,0.5,3.4,1.7l2.4-2.4c-1.7-1.8-3.4-2.5-5.8-2.5c-4,0-7.9,2.4-7.9,9.1c0,6.7,3.9,9.2,7.9,9.2c2.4,0,4.2-0.7,5.8-2.5
		l-2.4-2.4c-1.1,1.2-2,1.7-3.4,1.7c-1.4,0-2.5-0.6-3.3-1.6c-0.8-1-1-2.3-1-4.4c0-2.1,0.3-3.4,1-4.3
		C121.6,166.8,122.8,166.3,124.1,166.3z M147,169.2v12h-3.5v-1.6c-1.3,1.3-2.5,1.8-4.7,1.8c-2.2,0-3.7-0.5-4.7-1.6
		c-0.9-1-1.4-2.3-1.4-3.8c0-3,2.1-5.2,6.1-5.2h4.7v-1.3c0-2.3-1.1-3.4-3.9-3.4c-2,0-2.9,0.5-3.9,1.7l-2.3-2.2c1.7-2,3.4-2.6,6.4-2.6
		C144.5,163,147,165.1,147,169.2z M143.4,173.3h-4.2c-2.1,0-3.2,1-3.2,2.6c0,1.6,1,2.5,3.2,2.5c1.4,0,2.4-0.1,3.3-1
		c0.5-0.5,0.8-1.4,0.8-2.6V173.3z M155.9,176v-20h-3.6v20.2c0,2.7,1.5,4.9,4.9,4.9h2.2v-3.1h-1.6C156.4,178.1,155.9,177.4,155.9,176
		z M180.1,159.2c2.8,0,4.4,1.8,5,4.3h3.8c-0.9-5-4.3-7.7-8.9-7.7c-2.6,0-4.8,1-6.5,2.7c-2.4,2.5-2.4,5.3-2.4,10.1
		c0,4.8,0,7.6,2.4,10.1c1.7,1.7,3.9,2.7,6.5,2.7c4.5,0,8-2.7,8.9-7.7h-3.8c-0.6,2.5-2.3,4.3-5.1,4.3c-1.5,0-2.8-0.6-3.7-1.5
		c-1.2-1.3-1.5-2.8-1.5-7.8c0-5.1,0.3-6.5,1.5-7.8C177.3,159.8,178.6,159.2,180.1,159.2z M207.7,171.7v1.6h-11.5c0,3.1,1.6,5,4.5,5
		c2,0,3-0.6,4.3-1.8l2.3,2.2c-1.8,1.8-3.5,2.8-6.6,2.8c-4.4,0-8-2.4-8-9.2c0-5.8,3-9.1,7.5-9.1C204.9,163,207.7,166.6,207.7,171.7z
		 M204.1,170.7c0-1.1-0.1-1.6-0.5-2.4c-0.6-1.3-1.8-2.3-3.5-2.3c-1.7,0-3,0.9-3.5,2.3c-0.4,0.8-0.4,1.3-0.5,2.4H204.1z M220.6,163
		c-1.8,0-3.5,0.7-4.7,2v-1.8h-3.5v17.9h3.6v-10.9c0-2.8,1.7-4,3.7-4c2,0,3.6,1.2,3.6,4v10.9h3.6v-11.4c0-2-0.4-3.7-1.8-5.1
		C223.9,163.6,222.4,163,220.6,163z M236.2,158.1h-3.6v5.4h-2v2.8h2v9.9c0,2.6,1.5,5,4.9,5h2.1v-3.1h-1.5c-1.3,0-2-0.8-2-2.1v-9.7
		h3.4v-2.8h-3.4V158.1z M258.1,171.7v1.6h-11.5c0,3.1,1.6,5,4.5,5c2,0,3-0.6,4.3-1.8l2.3,2.2c-1.8,1.8-3.5,2.8-6.6,2.8
		c-4.4,0-8-2.4-8-9.2c0-5.8,3-9.1,7.5-9.1C255.4,163,258.1,166.6,258.1,171.7z M254.6,170.7c0-1.1-0.1-1.6-0.5-2.4
		c-0.6-1.3-1.8-2.3-3.5-2.3c-1.7,0-3,0.9-3.5,2.3c-0.4,0.8-0.4,1.3-0.5,2.4H254.6z M271,163c-2,0-3.8,0.9-4.7,2.2v-1.9h-3.5v17.9
		h3.6v-10.9c0-2.5,1.6-4,3.5-4c1.2,0,1.9,0.4,2.7,1.2l2.7-2.7C274,163.5,272.7,163,271,163z"/>
	<g>
		<path class="st2" d="M355.2,0.2c-0.2,0.1-0.5,0.2-0.9,0.4c-0.4,0.2-0.8,0.3-1.4,0.5c-0.5,0.2-1.1,0.3-1.8,0.4
			c-0.7,0.1-1.4,0.3-2.1,0.4c-0.4,0-0.8,0.1-1.2,0.1c-0.4,0-0.8,0.1-1.3,0.1c-0.4,0-0.9,0.1-1.3,0.2c-0.5,0.1-0.9,0.1-1.4,0.2
			c-0.9,0.2-1.9,0.4-2.9,0.7c-0.5,0.2-1,0.3-1.5,0.5l-0.4,0.2L338.9,4l-0.2,0.1l-0.1,0.1l-0.1,0l-0.3,0.2c-0.9,0.5-1.7,1.1-2.4,1.8
			c-0.7,0.7-1.3,1.4-1.8,2.1c-0.5,0.7-1.3,2.1-1.7,2.7c-0.2,0.3-0.4,0.5-0.6,0.8l0,0c0,0-0.3,0.6-1.5,1.4c-0.9,0.6-1.8,0.9-2.5,1.1
			c-0.9,0.3-1.9,0.6-3.2,0.9c0,0,0,0,0,0c-6.5,2-10.8,2.9-17.4,5.8c-16.3,6.9-23,26.2-23.1,26.6c-0.2,0.3,10.8-16.8,23.8-21.6
			c2.3-0.9,8.5-2.5,9.7-2.8c14.1-2.6,13.3-9.8,20.4-14.4c0.3-0.2,0.7-0.4,1-0.6c0.2-0.1,0.3-0.2,0.5-0.3c0.2-0.1,0.4-0.2,0.5-0.3
			l0.3-0.1l0.1,0l0,0l0,0l0.2-0.1l0.3-0.1l0.3-0.1c0.4-0.1,0.8-0.3,1.2-0.4c0.8-0.3,1.7-0.5,2.5-0.7c0.4-0.1,0.9-0.2,1.3-0.3
			c0.4-0.1,0.9-0.2,1.3-0.3c0.2-0.1,0.4-0.1,0.6-0.2l0.3-0.1l0.3-0.1c0.4-0.1,0.8-0.3,1.2-0.4c0.8-0.3,1.5-0.6,2.2-1
			c0.7-0.4,1.2-0.8,1.7-1.2c0.5-0.4,0.9-0.8,1.1-1.1c0.1-0.2,0.3-0.3,0.4-0.5c0.1-0.1,0.2-0.3,0.2-0.4c0.1-0.2,0.2-0.3,0.2-0.3
			S355.4,0.1,355.2,0.2z"/>
		<path class="st3" d="M309.5,233.4c-9.5-4.8-13.1-7.2-16.8-11c0.5-5.1,2.4-9.8,5.3-14.1C298.5,212.7,300.6,225.2,309.5,233.4z"/>
		<path class="st4" d="M359,230.1"/>
		<path class="st2" d="M365,206.3c0.3,1,0.6,2,0.8,2.9c0.7,3.8,1,12.8-7.4,21.7c-10.9,10.9-29.6,20.9-31.2,22
			c6.6-2.2,24.6-9.7,29.2-13.3C374,227.8,365,206.3,365,206.3z"/>
		<path class="st3" d="M357.3,217.6c1.4,5,1.8,9.2,1.7,12.6c7.7-8.6,7.4-17.2,6.7-20.9c-0.2-0.9-0.4-1.8-0.8-2.8
			c-0.1-0.4-0.3-0.8-0.4-1.1l-0.1-0.2c-1.7-4.4-6.4-14.1-13.5-22.8c-7.1-8.7-57-65.2-64.8-85.5c-8.3-21.5-5.9-39.2-4.9-44.5
			c-1.3,3.4-12.4,33.1,3.1,60.2c5,8.7,8.4,13.6,28.4,39.7c8.2,10.7,18.2,21.9,27.9,34.8C349.1,198,354.7,208.3,357.3,217.6z"/>
		<path class="st3" d="M355.8,137.6C355.8,137.5,355.8,137.5,355.8,137.6c0.4-1.6,0.8-3,1.3-4.4c1.8-7.3,2.6-16.7-1.6-22.6l-0.6-0.8
			c-8.2-10.2-41.2-27.2-33.9-41.9c-6.4,4.8-3.8,17.3,8.9,32.1C341.9,113.8,357.5,124,355.8,137.6z"/>
		<path class="st2" d="M354.9,109.7l0.6,0.8c5,7.2,2.8,19.5,0.3,27.1c-4.5,13.6-39.3,33.8-50.9,43c-9.5,7.5-28.3,23.7-13.6,40.3
			c0.4,0.5,0.9,1,1.4,1.5h0c0.5-5.1,2.4-9.8,5.3-14.1c12.6-18.7,43.6-31.5,59.5-49.6C366,149,370.9,123.5,354.9,109.7z"/>
		<g>
			<path class="st2" d="M400.3,76c0.2-0.3,0.3-0.7,0.5-1.1c1.1-3.1,0.5-6.5-0.9-8.2c-0.2-0.3-0.4-0.5-0.6-0.7
				c0.1,0.2,0.3,0.8,0.6,1.2c0.3,0.5,1,1.9,0.6,1.5c-0.4-0.5-0.8-0.9-1.2-1.2c0.5,1.8-0.5,4.2-1.6,5.6c-0.3,0.3-0.6,0.7-0.8,1.1
				c0,0.1-0.1,0.1-0.1,0.2c-0.7,0.9-1.3,2.4-1,6.6c0,0.4,0.1,0.8,0.1,1.2c0.2,1.8,0.7,3.5-0.8,5.4c-0.3,0.3-0.6,0.6-1,0.9
				c0.4-0.1,0.7-0.2,1.1-0.4c3.2-1.5,4.6-2.7,4.8-2.8c0.3-0.8,0.6-1.7,0.7-2.9c0.1-0.9,0-1.8-0.2-2.6c-0.1-0.7-0.6-1.8-0.5-2.4
				C399.9,76.7,400.1,76.6,400.3,76z"/>
		</g>
		<path class="st3" d="M395,88c-3.4,1.6-7.2,0.7-8.9-0.7c-0.6-0.5-1.2-1.1-1.8-1.6c-0.2-0.1-1.3-0.7-2.7-1.5
			c0.3,0.4,0.6,0.9,0.8,1.6c0.5,1.9,1.7,6.1,4.8,6.6c3.7,0.6,8.3-1.6,10.1-3.6c1.7-1.8,2.5-3.7,2.5-3.7S398.4,86.4,395,88z"/>
		<path class="st3" d="M399.3,66.1C399.3,66,399.3,66,399.3,66.1c0,0-0.1-0.1-0.3-0.2c0,0,0,0,0,0c0,0,0,0,0,0
			c-0.4-0.3-1.2-0.8-2.6-1.3c-2-0.7-6.3-3.9-6.4-4c0,0,0,0,0,0c-3.8-2.7-7-5.5-8-6.4c-2.2-1.9-3.6-3.4-3.7-3.6
			c-0.2-0.2-0.3-0.3-0.5-0.5c-1.2-1.3-4.2-5.9-5.1-7.3l-0.3-0.5l-0.3-0.5l-0.4-0.6l0,0l0,0c0,0,0,0,0,0l0-0.1l-0.1-0.1l-0.1-0.3
			c-0.2-0.4-0.4-0.8-0.6-1.2c-0.2-0.4-0.4-0.9-0.6-1.3c-0.1-0.2-0.2-0.5-0.4-0.7l-0.2-0.4l-0.1-0.2l-0.1-0.2l-0.1-0.2l-0.1-0.2
			l-0.1-0.2l-0.1-0.2c-0.1-0.2-0.3-0.5-0.4-0.7l-0.2-0.3c-0.1-0.1-0.2-0.3-0.3-0.4c-0.2-0.3-0.5-0.6-0.7-0.9
			c-0.1-0.1-0.1-0.2-0.2-0.3l-0.5-0.6c-1.4-1.6-2.8-2.9-4.2-4c-0.4-0.3-0.8-0.6-1.3-0.9c0,0,0,0,0,0c-0.1-0.1-0.6-0.5-1.1-0.8
			c-0.4-0.3-0.8-0.5-1.2-0.8l0,0c-2.1-1.8-9.5-5.2-10.9-7.2c-2.8-3.9-0.8-6.4-0.5-7.1c0.4-0.7,2.1-3.5,2.5-4.1
			c0.9-1.3,1.7-2.5,2.4-3.6c0.7-1,1.9-2.5,2.3-3.2c0-0.1,0.1-0.1,0.1-0.2c-0.1,0.1-0.1,0.2-0.2,0.3c-0.3,0.3-0.7,0.7-1.1,1.1
			c-0.5,0.4-1,0.8-1.7,1.2c-0.4,0.2-0.9,0.5-1.4,0.7c-0.7,0.7-1.4,1.4-2.1,2.3c-0.5,0.6-1.1,1.3-1.5,2c-0.5,0.7-2.6,3.6-2.9,4.4
			c-0.3,0.8-2.2,3.1,0.3,7.2c2.3,3.8,9.5,5.4,17.7,16.5c0.1,0.2,0.2,0.3,0.3,0.5c0.1,0.2,0.2,0.4,0.3,0.5c0.1,0.2,0.2,0.4,0.3,0.5
			c0.1,0.2,0.2,0.4,0.3,0.5c0.1,0.2,0.2,0.4,0.3,0.5l0.1,0.1c0,0,0,0,0,0l0,0l0,0l0,0.1l0.1,0.2l0.1,0.1c0.1,0.2,0.2,0.4,0.2,0.6
			c0.1,0.2,0.2,0.4,0.3,0.6c0.2,0.4,0.4,0.9,0.6,1.3c0.2,0.5,0.4,1,0.6,1.5l0.2,0.4l0.1,0.2l0,0.1l0.1,0.1l0.2,0.3L366,45l0,0.1
			l0.1,0.1c0.2,0.3,0.3,0.5,0.5,0.8c0.2,0.2,0.3,0.5,0.5,0.7c1.3,1.9,2.7,3.6,4.2,5c0.2,0.2,0.4,0.4,0.6,0.5
			c0.2,0.2,0.4,0.3,0.6,0.5c0.4,0.3,0.8,0.7,1.2,1c0.2,0.2,0.4,0.3,0.6,0.5l0.2,0.1l0.1,0.1l0.3,0.2c0.3,0.2,4.2,3.7,14.1,7.9
			c3,1.3,6.3,2.7,8.6,3.8c1.3,0.6,2.1,1.2,3,2.3c0,0,0.7,0.9,0.8,1.5C401.3,70.9,401.4,67.9,399.3,66.1z"/>
		<path class="st2" d="M380.8,82.7c-1.2-0.8-7.5-4.7-7.8-4.8c-0.3-0.2-0.6-0.3-0.9-0.5c-0.6-0.3-1.2-0.7-1.9-1
			c-0.7-0.3-1.4-0.6-2.2-0.9c-0.4-0.1-0.8-0.3-1.2-0.4c-0.4-0.1-0.8-0.3-1.2-0.4c-1.7-0.5-3.4-0.9-5.3-1.2c-0.5-0.1-0.9-0.1-1.4-0.2
			c-0.5-0.1-1-0.1-1.5-0.2c-0.5,0-0.9-0.1-1.4-0.1c-0.5,0-1-0.1-1.5-0.1c-1.9-0.1-3.8-0.1-5.6-0.2c-0.9,0-1.8-0.1-2.6-0.2
			c-0.4,0-0.8-0.1-1.2-0.1c-0.2,0-0.4-0.1-0.6-0.1l-0.3,0l-0.3-0.1c-0.3,0-0.5-0.1-0.8-0.1c-0.1,0-0.2-0.1-0.4-0.1
			c-0.1,0-0.2,0-0.3-0.1l-0.2-0.1l-0.2-0.1l-0.1,0l-0.1,0l-0.1,0c-0.2-0.1-0.4-0.1-0.7-0.2l-0.2-0.1l0,0l0,0c0,0-0.1,0,0.1,0l-0.1,0
			l-0.3-0.1c-0.3-0.1-0.7-0.3-1-0.4c-1.4-0.6-2.7-1.4-4-2.3c-1.3-0.9-2.5-1.8-3.7-2.6c-0.3-0.2-0.6-0.4-0.9-0.6
			c-0.3-0.2-0.6-0.4-0.9-0.6c-0.3-0.2-0.6-0.4-0.8-0.5c-0.3-0.2-0.5-0.3-0.8-0.5c-0.3-0.2-0.5-0.3-0.8-0.4c-0.2-0.1-0.5-0.3-0.7-0.4
			c-0.5-0.2-0.9-0.4-1.3-0.6c-0.4-0.2-0.8-0.3-1.1-0.4c-0.3-0.1-0.6-0.2-0.8-0.3c-0.4-0.1-0.7-0.2-0.7-0.2s0.2,0.2,0.5,0.5
			c0.1,0.1,0.2,0.2,0.3,0.3c0.1,0.1,0.2,0.2,0.3,0.3c0.2,0.3,0.5,0.5,0.7,0.8c0.3,0.3,0.6,0.7,0.9,1.1c0.3,0.4,0.7,0.8,1,1.3
			c0.7,0.9,1.5,2,2.4,3.1c0.9,1.1,1.9,2.4,3.1,3.7c1.2,1.3,2.6,2.6,4.4,3.7c0.4,0.3,0.9,0.5,1.4,0.8l0.4,0.2l0.1,0
			c0.2,0.1,0.1,0,0.1,0l0,0l0,0l0.2,0.1c0.2,0.1,0.4,0.2,0.6,0.3l0.1,0l0.1,0l0.2,0.1l0.4,0.2l0.4,0.2c0,0,0,0,0,0
			c0.5,0.2,1,0.3,1.5,0.5c0.1,0,0.3,0.1,0.4,0.1l0.4,0.1l0.4,0.1c0.3,0.1,0.5,0.1,0.8,0.2c0.5,0.1,1,0.2,1.6,0.2
			c1,0.1,2.1,0.2,3.1,0.3c2,0.1,3.9,0.1,5.8,0c0.4,0,0.9,0,1.3,0c0.5,0,0.9,0,1.4,0c0.4,0,0.9,0,1.3,0c0.4,0,0.9,0,1.3,0
			c1.7,0,3.3,0.1,4.9,0.2c0.4,0,0.8,0.1,1.2,0.1c0.4,0,0.7,0.1,1.1,0.1c0.7,0.1,1.4,0.1,2.1,0.2c0.7,0.1,1.3,0.2,2,0.3
			c0.6,0.1,1.2,0.2,1.8,0.3c4.2,0.6,11.5,4.9,11.5,4.9S382.1,83.6,380.8,82.7z"/>
	</g>
</g>
</svg>
